<svg width="39" height="48" viewBox="0 0 39 48" fill="none" xmlns="http://www.w3.org/2000/svg">
<path d="M24.7871 0C26.9938 0.00297531 28.7814 1.79133 28.7842 3.99805V27.6543L34.1475 33.0186L33.0166 34.1494L25.124 26.2559C24.175 25.2665 22.6344 25.1478 21.5449 25.9805C20.9792 26.4446 20.635 27.126 20.5986 27.8574C20.5625 28.5884 20.8372 29.3005 21.3545 29.8184L26.9512 35.415C27.2204 35.6843 27.2627 36.1074 27.0508 36.4248C25.0494 39.4195 23.9835 42.9422 23.9873 46.5439V47.9746H3.99805C1.79123 47.9718 0.00280676 46.1834 0 43.9766V3.99805C0.00279853 1.79122 1.79122 0.00279851 3.99805 0H24.7871ZM36.0459 23.0957C37.531 24.4607 38.3778 26.3836 38.3799 28.4004V47.9746H36.7803V28.4004C36.7797 26.8325 36.1219 25.3363 34.9678 24.2744L30.0645 19.7793L31.1426 18.6006L36.0459 23.0957ZM1.59961 39.9785H21.5889V41.5781H1.59961V43.9766C1.59962 45.301 2.67356 46.375 3.99805 46.375H22.3936C22.4192 42.739 23.4479 39.1805 25.3652 36.0908L20.2236 30.9492C19.3873 30.1125 18.9434 28.9616 19.001 27.7803C19.0587 26.5987 19.6129 25.4959 20.5264 24.7451C22.2534 23.3933 24.7209 23.5569 26.2549 25.124L27.1855 26.0547V6.39648H1.59961V39.9785ZM15.1924 44.7764H13.5928V43.1768H15.1924V44.7764ZM7.99609 31.9834C8.87924 31.9836 9.5947 32.6988 9.59473 33.582V36.7803C9.59473 37.6635 8.87926 38.3797 7.99609 38.3799H4.79785C3.91452 38.3799 3.19824 37.6636 3.19824 36.7803V33.582C3.19827 32.6987 3.91454 31.9834 4.79785 31.9834H7.99609ZM15.9912 31.9834C16.8745 31.9834 17.5908 32.6987 17.5908 33.582V36.7803C17.5908 37.6636 16.8745 38.3799 15.9912 38.3799H12.793C11.9097 38.3798 11.1943 37.6635 11.1943 36.7803V33.582C11.1944 32.6988 11.9098 31.9835 12.793 31.9834H15.9912ZM4.79785 36.7803H7.99609V33.582H4.79785V36.7803ZM12.793 36.7803H15.9912V33.582H12.793V36.7803ZM7.99609 23.9873C8.87912 23.9875 9.5945 24.7029 9.59473 25.5859V28.7842C9.59473 29.6674 8.87926 30.3836 7.99609 30.3838H4.79785C3.91452 30.3838 3.19824 29.6675 3.19824 28.7842V25.5859C3.19847 24.7028 3.91466 23.9873 4.79785 23.9873H7.99609ZM15.9912 23.9873C16.8744 23.9873 17.5906 24.7028 17.5908 25.5859V28.7842C17.5908 29.6675 16.8745 30.3838 15.9912 30.3838H12.793C11.9097 30.3837 11.1943 29.6674 11.1943 28.7842V25.5859C11.1946 24.7029 11.9099 23.9874 12.793 23.9873H15.9912ZM4.79785 28.7842H7.99609V25.5859H4.79785V28.7842ZM12.793 28.7842H15.9912V25.5859H12.793V28.7842ZM7.99609 15.9912C8.87926 15.9914 9.59473 16.7076 9.59473 17.5908V20.7891C9.59465 21.6722 8.87921 22.3875 7.99609 22.3877H4.79785C3.91457 22.3877 3.19832 21.6723 3.19824 20.7891V17.5908C3.19824 16.7075 3.91452 15.9912 4.79785 15.9912H7.99609ZM15.9912 15.9912C16.8745 15.9912 17.5908 16.7075 17.5908 17.5908V20.7891C17.5907 21.6723 16.8745 22.3877 15.9912 22.3877H12.793C11.9098 22.3876 11.1944 21.6723 11.1943 20.7891V17.5908C11.1943 16.7076 11.9097 15.9913 12.793 15.9912H15.9912ZM23.9873 15.9912C24.8706 15.9913 25.5859 16.7075 25.5859 17.5908V20.7891C25.5859 21.6723 24.8705 22.3876 23.9873 22.3877H20.7891C19.9058 22.3877 19.1895 21.6723 19.1895 20.7891V17.5908C19.1895 16.7075 19.9057 15.9912 20.7891 15.9912H23.9873ZM4.79785 20.7891H7.99609V17.5908H4.79785V20.7891ZM12.793 20.7891H15.9912V17.5908H12.793V20.7891ZM20.7891 20.7891H23.9873V17.5908H20.7891V20.7891ZM7.99609 7.99609C8.87921 7.99629 9.59464 8.71159 9.59473 9.59473V12.793C9.59473 13.6762 8.87926 14.3924 7.99609 14.3926H4.79785C3.91452 14.3926 3.19824 13.6763 3.19824 12.793V9.59473C3.19833 8.71147 3.91457 7.99609 4.79785 7.99609H7.99609ZM15.9912 7.99609C16.8745 7.99609 17.5907 8.71147 17.5908 9.59473V12.793C17.5908 13.6763 16.8745 14.3926 15.9912 14.3926H12.793C11.9097 14.3925 11.1943 13.6762 11.1943 12.793V9.59473C11.1944 8.71154 11.9098 7.99621 12.793 7.99609H15.9912ZM23.9873 7.99609C24.8705 7.99615 25.5859 8.7115 25.5859 9.59473V12.793C25.5859 13.6763 24.8706 14.3925 23.9873 14.3926H20.7891C19.9057 14.3926 19.1895 13.6763 19.1895 12.793V9.59473C19.1895 8.71147 19.9058 7.99609 20.7891 7.99609H23.9873ZM4.79785 12.793H7.99609V9.59473H4.79785V12.793ZM12.793 12.793H15.9912V9.59473H12.793V12.793ZM20.7891 12.793H23.9873V9.59473H20.7891V12.793ZM3.99805 1.59961C2.67355 1.59961 1.59961 2.67355 1.59961 3.99805V4.79785H27.1855V3.99805C27.1855 2.67366 26.1115 1.59979 24.7871 1.59961H3.99805Z" fill="#495567"/>
</svg>
