<svg width="40" height="40" viewBox="0 0 40 40" fill="none" xmlns="http://www.w3.org/2000/svg">
<path d="M16 0C17.4728 0 18.667 1.19423 18.667 2.66699V13.4795L20.749 14H26C26.3682 14 26.667 14.2988 26.667 14.667V17.333C26.667 17.7012 26.3682 18 26 18H20.667C20.6125 18 20.5578 17.9937 20.5049 17.9805L18.667 17.5205V19.333H26C26.3682 19.333 26.667 19.6318 26.667 20V27.333C27.7713 27.3332 28.6668 28.2287 28.667 29.333V30H30.667V12.1572L29.5879 10H26C25.6318 10 25.333 9.7012 25.333 9.33301V6.66699C25.333 6.2988 25.6318 6 26 6H30C30.3682 6 30.667 6.2988 30.667 6.66699V9.17578L31.7451 11.333H38C38.3682 11.333 38.667 11.6318 38.667 12V17.333C38.667 17.7012 38.3682 18 38 18H36.1709L39.9834 34.5166C40.0291 34.7146 39.982 34.923 39.8555 35.082C39.7289 35.241 39.5362 35.3331 39.333 35.333H38.667C38.667 37.9103 36.5773 40 34 40C31.4227 40 29.333 37.9103 29.333 35.333H17.333C17.333 37.9102 15.2442 39.9998 12.667 40C10.0897 40 8 37.9103 8 35.333H0.666992C0.29891 35.333 0.000175175 35.035 0 34.667V32C0 31.6318 0.298802 31.333 0.666992 31.333H4V30H2C1.63181 30 1.33301 29.7012 1.33301 29.333V26.667C1.33301 26.2988 1.63181 26 2 26H4.05371C4.38484 23.7061 6.34929 22.0027 8.66699 22H10.667V15.333H9.33301V17.333C9.33301 18.4376 8.43758 19.333 7.33301 19.333H0.666992C0.397414 19.333 0.153957 19.1709 0.0507812 18.9219C-0.0523814 18.6728 0.00470722 18.386 0.195312 18.1953L1.72363 16.667L0.195312 15.1377C0.00483736 14.947 -0.052352 14.6601 0.0507812 14.4111C0.154022 14.1622 0.397515 14.0001 0.666992 14H5.33301V12C5.33301 10.8955 6.22859 10.0002 7.33301 10H10.667V2.66699C10.667 1.19434 11.8604 0.000175737 13.333 0H16ZM9.33301 35.333C9.33521 37.173 10.827 38.6648 12.667 38.667C14.5069 38.6646 15.9978 37.1729 16 35.333H14.667C14.667 36.4375 13.7714 37.3328 12.667 37.333C11.5624 37.333 10.667 36.4376 10.667 35.333H9.33301ZM30.667 35.333C30.6692 37.173 32.16 38.6648 34 38.667C35.84 38.6648 37.3308 37.173 37.333 35.333H36C36 36.4376 35.1046 37.333 34 37.333C32.8954 37.333 32 36.4376 32 35.333H30.667ZM12 35.333C12 35.7012 12.2988 36 12.667 36C13.035 35.9998 13.333 35.7011 13.333 35.333H12ZM33.333 35.333C33.333 35.7012 33.6318 36 34 36C34.3682 36 34.667 35.7012 34.667 35.333H33.333ZM1.33301 34H4V32.667H1.33301V34ZM8.66699 23.333C6.82696 23.3352 5.33521 24.827 5.33301 26.667V34H6.66699V27.333C6.66717 26.2286 7.56253 25.333 8.66699 25.333H16.667C17.7713 25.3332 18.6668 26.2287 18.667 27.333V34H20V26.667C19.9978 24.8271 18.5069 23.3354 16.667 23.333H8.66699ZM8.66699 26.667C8.29891 26.667 8.00018 26.965 8 27.333V34H17.333V27.333C17.3328 26.9651 17.0349 26.6672 16.667 26.667H8.66699ZM21.333 34H30.667V31.333H21.333V34ZM32 28H33.333V29.333H32V34H38.4922L34.7998 18H32V28ZM19.9268 23.333C20.8263 24.2088 21.3332 25.4116 21.333 26.667V30H22.667V23.333H19.9268ZM24 30H27.333V29.333C27.3328 28.9651 27.0349 28.6672 26.667 28.667H24V30ZM10.667 29.333H9.33301V28H10.667V29.333ZM13.333 29.333H12V28H13.333V29.333ZM16 29.333H14.667V28H16V29.333ZM36 29.333H34.667V28H36V29.333ZM2.66699 28.667H4V27.333H2.66699V28.667ZM12 22H23.333C23.7012 22 24 22.2988 24 22.667V27.333H25.333V20.667H12V22ZM12 19.333H17.333V17.1875L15.1709 16.6465C14.8745 16.572 14.667 16.3056 14.667 16V13.333C14.6671 13.1278 14.7611 12.9339 14.9229 12.8076C15.0847 12.6813 15.296 12.6367 15.4951 12.6865L17.333 13.1465V12H12V19.333ZM3.1377 16.1953C3.39795 16.4556 3.39795 16.8774 3.1377 17.1377L2.27637 18H7.33301C7.7012 18 8 17.7012 8 17.333V15.333H2.27637L3.1377 16.1953ZM28.667 14C29.7714 14.0002 30.667 14.8955 30.667 16C30.667 17.1045 29.7714 17.9998 28.667 18C27.5624 18 26.667 17.1046 26.667 16C26.667 14.8954 27.5624 14 28.667 14ZM16 15.4795L20.749 16.667H25.333V15.333H20.667C20.6125 15.333 20.5578 15.3267 20.5049 15.3135L16 14.1875V15.4795ZM28.667 15.333C28.2988 15.333 28 15.6318 28 16C28 16.3682 28.2988 16.667 28.667 16.667C29.035 16.6668 29.333 16.3681 29.333 16C29.333 15.6319 29.035 15.3332 28.667 15.333ZM32 16.667H34.667V12.667H32V16.667ZM36 16.667H37.333V12.667H36V16.667ZM7.33301 11.333C6.96497 11.3332 6.66699 11.6319 6.66699 12V14H10.667V11.333H7.33301ZM12 9.16309V10.667H17.333V7.5625L12 9.16309ZM9.33301 8.66699H1.33301V7.33301H9.33301V8.66699ZM26.667 8.66699H29.333V7.33301H26.667V8.66699ZM15.333 6C15.333 6.36808 15.035 6.66682 14.667 6.66699H12V7.77051L17.333 6.1709V4.66699H15.333V6ZM8.66699 6H0V4.66699H8.66699V6ZM13.333 1.33301C12.5968 1.33318 12 1.93072 12 2.66699V5.33301H14V4C14 3.63181 14.2988 3.33301 14.667 3.33301H17.333V2.66699C17.333 1.93061 16.7364 1.33301 16 1.33301H13.333Z" fill="#495567"/>
</svg>
